<svg width="16" height="24" viewBox="0 0 16 24" fill="none" xmlns="http://www.w3.org/2000/svg">
<g clip-path="url(#clip0_5_24312)">
<path fill-rule="evenodd" clip-rule="evenodd" d="M15.8002 16C15.8018 17.4047 15.4427 18.785 14.7591 20.0022C14.0756 21.2194 13.0915 22.2306 11.906 22.934C10.7205 23.6374 9.37536 24.0082 8.00579 24.0092C6.63622 24.0102 5.2906 23.6413 4.10412 22.9397C2.91765 22.2381 1.93214 21.2284 1.24684 20.0122C0.56155 18.796 0.20059 17.4162 0.200196 16.0115C0.199801 14.6068 0.559972 13.2268 1.24458 12.0102C1.9292 10.7936 2.91412 9.78334 4.1002 9.08099V4C4.1002 2.93913 4.51114 1.92172 5.24254 1.17157C5.97393 0.421424 6.96585 0 8.0002 0C9.03454 0 10.0265 0.421424 10.7579 1.17157C11.4892 1.92172 11.9002 2.93913 11.9002 4V9.07999C13.0853 9.78082 14.0697 10.7893 14.7543 12.004C15.4389 13.2188 15.7996 14.5969 15.8002 16ZM4.1002 9.08099L4.22695 9.00201H4.1002V9.08099ZM8.0002 2.00201C7.48302 2.00201 6.98706 2.21273 6.62137 2.5878C6.25567 2.96287 6.0502 3.47158 6.0502 4.00201V8.26199C7.32772 7.91132 8.67268 7.91132 9.9502 8.26199V4C9.9502 3.46957 9.74472 2.96086 9.37903 2.58578C9.01333 2.21071 8.51737 2 8.0002 2V2.00201ZM11.9002 9.00201H11.7734L11.9002 9.08099V9V9.00201ZM8.0002 9.98901C6.84078 9.98862 5.70734 10.3409 4.74313 11.0012C3.77893 11.6616 3.02726 12.6004 2.5833 13.6989C2.13935 14.7974 2.02303 16.0063 2.24898 17.1727C2.47494 18.339 3.03306 19.4104 3.85276 20.2514C4.67245 21.0924 5.71682 21.6652 6.85393 21.8973C7.99104 22.1295 9.16976 22.0105 10.241 21.5555C11.3122 21.1006 12.2278 20.33 12.872 19.3413C13.5162 18.3526 13.86 17.1902 13.86 16.001C13.8584 14.4072 13.2406 12.879 12.1422 11.7516C11.0437 10.6242 9.55418 9.98965 8.0002 9.987V9.98901ZM8.0002 18.002C7.74161 18.002 7.49357 17.8966 7.31072 17.7091C7.12787 17.5216 7.0252 17.2672 7.0252 17.002V15.002C7.0252 14.7368 7.12787 14.4824 7.31072 14.2949C7.49357 14.1074 7.74161 14.002 8.0002 14.002C8.25878 14.002 8.50682 14.1074 8.68967 14.2949C8.87252 14.4824 8.9752 14.7368 8.9752 15.002V17.002C8.97468 17.2669 8.87175 17.5207 8.68896 17.7078C8.50616 17.8949 8.25844 18 8.0002 18V18.002Z" fill="#01C120"/>
</g>
<defs>
<clipPath id="clip0_5_24312">
<rect width="15.6" height="24" fill="white" transform="translate(0.200195)"/>
</clipPath>
</defs>
</svg>
